<?xml version="1.0" encoding="UTF-8" standalone="no"?>
<!DOCTYPE svg PUBLIC "-//W3C//DTD SVG 1.1//EN" "http://www.w3.org/Graphics/SVG/1.1/DTD/svg11.dtd">
<svg version="1.1" xmlns="http://www.w3.org/2000/svg" xmlns:xlink="http://www.w3.org/1999/xlink" preserveAspectRatio="xMidYMid meet" viewBox="106.69230769230766 186.47401119923927 492.9990005651095 340.95608505837345" width="489" height="336.96"><defs><path d="M497.27 297.54C493.56 299.8 488.92 299.88 485.14 297.75C481.35 295.63 479.02 291.62 479.02 287.28C479.02 279.47 479.02 216.97 479.02 209.16C479.02 197.14 468.92 187.47 456.89 187.47C447.32 187.47 370.77 187.47 361.2 187.47C360.41 187.47 229.64 187.47 225.39 187.47C215.82 187.47 139.26 187.47 129.69 187.47C117.67 187.47 107.69 197.14 107.69 209.16C107.69 216.78 107.69 277.74 107.69 285.36C107.69 289.59 109.92 293.5 113.55 295.67C117.18 297.84 121.69 297.94 125.41 295.93C134.67 290.92 145.27 288.07 156.54 288.08C192.76 288.07 222.12 317.44 222.12 353.65C222.12 389.87 192.76 419.23 156.54 419.22C145.27 419.22 134.67 416.38 125.41 411.37C121.68 409.36 117.18 409.45 113.54 411.62C109.91 413.79 107.69 417.71 107.69 421.94C107.69 430.01 107.69 494.59 107.69 502.66C107.69 514.68 117.67 524.43 129.69 524.43C162.41 524.43 424.17 524.43 456.89 524.43C468.91 524.43 479.02 514.68 479.02 502.66C479.02 494.39 479.02 428.29 479.02 420.02C479.02 415.68 481.36 411.68 485.14 409.55C488.92 407.43 493.56 407.5 497.27 409.76C507.12 415.77 518.69 419.22 531.12 419.22C567.34 419.23 596.69 389.87 596.69 353.65C596.69 317.44 567.34 288.07 531.12 288.08C518.69 288.07 507.12 291.53 497.27 297.54Z" id="bqNMLQdBR"></path></defs><g><g><use xlink:href="#bqNMLQdBR" opacity="1" fill="#000000" fill-opacity="1"></use><g><use xlink:href="#bqNMLQdBR" opacity="1" fill-opacity="0" stroke="#000000" stroke-width="1" stroke-opacity="0"></use></g></g></g></svg>