<?xml version="1.0" encoding="UTF-8" standalone="no"?>
<!DOCTYPE svg PUBLIC "-//W3C//DTD SVG 1.1//EN" "http://www.w3.org/Graphics/SVG/1.1/DTD/svg11.dtd">
<svg version="1.1" xmlns="http://www.w3.org/2000/svg" xmlns:xlink="http://www.w3.org/1999/xlink" preserveAspectRatio="xMidYMid meet" viewBox="106.69230769230766 187.5729122981404 492.9990005651095 340.95608505837345" width="150" height="95"><defs><path d="M497.27 298.64C493.56 300.9 488.92 300.98 485.14 298.85C481.35 296.73 479.02 292.72 479.02 288.38C479.02 280.57 479.02 218.07 479.02 210.26C479.02 198.24 468.92 188.57 456.89 188.57C447.32 188.57 370.77 188.57 361.2 188.57C360.41 188.57 229.64 188.57 225.39 188.57C215.82 188.57 139.26 188.57 129.69 188.57C117.67 188.57 107.69 198.24 107.69 210.26C107.69 217.88 107.69 278.84 107.69 286.46C107.69 290.69 109.92 294.6 113.55 296.77C117.18 298.94 121.69 299.04 125.41 297.03C134.67 292.02 145.27 289.17 156.54 289.18C192.76 289.17 222.12 318.54 222.12 354.75C222.12 390.97 192.76 420.33 156.54 420.32C145.27 420.32 134.67 417.48 125.41 412.47C121.68 410.46 117.18 410.55 113.54 412.72C109.91 414.89 107.69 418.81 107.69 423.04C107.69 431.11 107.69 495.69 107.69 503.76C107.69 515.78 117.67 525.53 129.69 525.53C162.41 525.53 424.17 525.53 456.89 525.53C468.91 525.53 479.02 515.78 479.02 503.76C479.02 495.49 479.02 429.38 479.02 421.12C479.02 416.78 481.36 412.78 485.14 410.65C488.92 408.53 493.56 408.6 497.27 410.86C507.12 416.87 518.69 420.32 531.12 420.32C567.34 420.33 596.69 390.97 596.69 354.75C596.69 318.54 567.34 289.17 531.12 289.17C518.69 289.17 507.12 292.63 497.27 298.64Z" id="aCOThQum8"></path></defs><g><g><use xlink:href="#aCOThQum8" opacity="1" fill="#000000" fill-opacity="1"></use><g><use xlink:href="#aCOThQum8" opacity="1" fill-opacity="0" stroke="#000000" stroke-width="1" stroke-opacity="0"></use></g></g></g></svg>