<?xml version="1.0" encoding="UTF-8" standalone="no"?>
<svg
   xmlns:dc="http://purl.org/dc/elements/1.1/"
   xmlns:cc="http://creativecommons.org/ns#"
   xmlns:rdf="http://www.w3.org/1999/02/22-rdf-syntax-ns#"
   xmlns:svg="http://www.w3.org/2000/svg"
   xmlns="http://www.w3.org/2000/svg"
   id="svg8"
   version="1.1"
   viewBox="0 0 270.05142 152.28288"
   height="152.28288mm"
   width="270.05142mm">
  <defs
     id="defs2" />
  <metadata
     id="metadata5">
    <rdf:RDF>
      <cc:Work
         rdf:about="">
        <dc:format>image/svg+xml</dc:format>
        <dc:type
           rdf:resource="http://purl.org/dc/dcmitype/StillImage" />
        <dc:title></dc:title>
      </cc:Work>
    </rdf:RDF>
  </metadata>
  <g
     transform="translate(-20.190318,-53.637658)"
     id="layer1">
    <path
       style="stroke-width:0.35277778"
       d="m 263.69518,103.23326 c -0.59945,0 -1.19752,0.0193 -1.79421,0.0593 V 73.099692 c 0,-10.730784 -8.72987,-19.462034 -19.46065,-19.462034 H 212.24612 69.845166 39.650974 c -10.730784,0 -19.460656,8.73125 -19.460656,19.462034 v 36.639288 c 0,1.71703 0.833713,3.32796 2.236556,4.32015 1.402843,0.99218 3.198427,1.24023 4.817622,0.66834 1.712901,-0.60495 3.502973,-0.91088 5.321983,-0.91088 8.801531,0 15.963195,7.16029 15.963195,15.9632 0,8.80153 -7.161664,15.9632 -15.963195,15.9632 -1.820388,0 -3.609082,-0.30731 -5.320605,-0.91227 -1.619195,-0.57326 -3.416157,-0.32383 -4.819,0.66835 -1.402843,0.99081 -2.236556,2.60174 -2.236556,4.32015 v 36.63928 c 0,10.73217 8.729872,19.46204 19.460656,19.46204 h 36.639281 0.0083 129.502515 36.63928 c 10.73078,0 19.46065,-8.72987 19.46065,-19.46204 v -30.19281 c 0.59669,0.04 1.19476,0.0606 1.79421,0.0606 14.63752,0 26.54653,-11.90901 26.54653,-26.54653 0,-14.63753 -11.90901,-26.54653 -26.54653,-26.54653 z m 0,42.50973 c -1.82039,0 -3.61046,-0.30731 -5.32061,-0.91227 -1.61919,-0.57326 -3.41615,-0.32383 -4.819,0.66835 -1.40284,0.99081 -2.23793,2.60174 -2.23793,4.32015 v 36.63928 c 0,4.89617 -3.98115,8.8787 -8.87732,8.8787 H 212.24612 69.845126 39.650974 c -4.894792,0 -8.877322,-3.98253 -8.877322,-8.8787 v -30.19281 c 0.595312,0.04 1.193381,0.0606 1.792827,0.0606 14.637523,0 26.546529,-11.90901 26.546529,-26.54653 0,-14.63753 -11.909006,-26.54653 -26.546529,-26.54653 -0.599446,0 -1.197515,0.0193 -1.792827,0.0593 V 73.099692 c 0,-4.896169 3.98253,-8.8787 8.877322,-8.8787 h 36.639281 129.509405 36.64066 c 4.89617,0 8.87732,3.982531 8.87732,8.8787 v 36.639288 c 0,1.71703 0.83371,3.32796 2.23656,4.32015 1.40284,0.99218 3.1998,1.24023 4.819,0.66834 1.71152,-0.60495 3.50297,-0.91088 5.32198,-0.91088 8.80153,0 15.96319,7.16029 15.96319,15.9632 0,8.80153 -7.16166,15.9632 -15.96319,15.9632 z"
       id="path3713" />
  </g>
</svg>
