<?xml version="1.0" encoding="UTF-8" standalone="no"?>
<!DOCTYPE svg PUBLIC "-//W3C//DTD SVG 1.1//EN" "http://www.w3.org/Graphics/SVG/1.1/DTD/svg11.dtd">
<svg version="1.1" xmlns="http://www.w3.org/2000/svg" xmlns:xlink="http://www.w3.org/1999/xlink" preserveAspectRatio="xMidYMid meet" viewBox="-1 31.00311221257028 686 579.9937755748596" width="682" height="575.99"><defs><path d="M331.26 32.03L340.1 32.05L348.37 32.09L356 32.14L362.93 32.2L369.13 32.27L374.52 32.36L379.05 32.46L382.67 32.57L385.33 32.7L386.95 32.84L387.5 33L501.51 33L504.53 33.06L507.53 33.25L510.49 33.55L513.41 33.97L516.3 34.5L519.15 35.14L521.95 35.89L524.71 36.75L527.42 37.72L530.08 38.79L532.69 39.95L535.25 41.22L537.75 42.58L540.19 44.03L542.57 45.57L544.88 47.2L547.13 48.91L549.3 50.71L551.41 52.59L553.44 54.55L555.4 56.58L557.28 58.69L559.08 60.87L560.79 63.12L562.42 65.43L563.97 67.81L565.42 70.25L566.78 72.75L568.04 75.3L569.21 77.91L570.27 80.57L571.24 83.29L572.1 86.05L572.85 88.85L573.49 91.7L574.03 94.58L574.44 97.51L574.75 100.47L574.93 103.46L574.99 106.49L574.99 220.49L575.16 220.48L575.33 220.47L575.5 220.46L575.67 220.45L575.84 220.44L576 220.43L576.17 220.42L576.34 220.41L576.51 220.4L576.68 220.39L576.85 220.38L577.02 220.38L577.19 220.37L577.36 220.36L577.53 220.35L577.7 220.35L577.87 220.34L578.03 220.33L578.2 220.33L578.37 220.32L578.54 220.32L578.71 220.31L578.88 220.31L579.05 220.3L579.22 220.3L579.39 220.29L579.56 220.29L579.73 220.29L579.9 220.28L580.07 220.28L580.24 220.28L580.41 220.28L580.58 220.27L580.75 220.27L580.92 220.27L581.09 220.27L581.26 220.27L581.43 220.27L581.59 220.27L581.76 220.27L585.89 220.35L589.97 220.6L594.01 221.01L598 221.58L601.94 222.31L605.82 223.18L609.65 224.21L613.41 225.39L617.11 226.7L620.74 228.16L624.3 229.75L627.79 231.47L631.2 233.33L634.52 235.31L637.77 237.41L640.92 239.63L643.99 241.97L646.96 244.42L649.83 246.99L652.61 249.66L655.28 252.43L657.84 255.31L660.29 258.28L662.63 261.34L664.86 264.5L666.96 267.74L668.94 271.07L670.79 274.48L672.52 277.96L674.11 281.52L675.57 285.15L676.88 288.85L678.05 292.62L679.08 296.44L679.96 300.33L680.69 304.26L681.26 308.25L681.67 312.29L681.92 316.38L682 320.5L681.92 324.63L681.67 328.71L681.26 332.75L680.69 336.74L679.96 340.68L679.08 344.56L678.05 348.39L676.88 352.15L675.57 355.85L674.11 359.48L672.52 363.04L670.79 366.53L668.94 369.93L666.96 373.26L664.86 376.51L662.63 379.66L660.29 382.73L657.84 385.7L655.28 388.57L652.61 391.35L649.83 394.02L646.96 396.58L643.99 399.03L640.92 401.37L637.77 403.59L634.52 405.7L631.2 407.68L627.79 409.53L624.3 411.26L620.74 412.85L617.11 414.3L613.41 415.62L609.65 416.79L605.82 417.82L601.94 418.7L598 419.42L594.01 419.99L589.97 420.4L585.89 420.65L581.76 420.74L581.59 420.74L581.43 420.74L581.26 420.74L581.09 420.73L580.92 420.73L580.75 420.73L580.58 420.73L580.41 420.73L580.24 420.73L580.07 420.72L579.9 420.72L579.73 420.72L579.56 420.71L579.39 420.71L579.22 420.7L579.05 420.7L578.88 420.7L578.71 420.69L578.54 420.68L578.37 420.68L578.2 420.67L578.03 420.67L577.87 420.66L577.7 420.65L577.53 420.65L577.36 420.64L577.19 420.63L577.02 420.62L576.85 420.62L576.68 420.61L576.51 420.6L576.34 420.59L576.17 420.58L576 420.57L575.84 420.56L575.67 420.55L575.5 420.54L575.33 420.53L575.16 420.52L574.99 420.51L574.99 534.51L574.93 537.54L574.75 540.53L574.44 543.49L574.03 546.42L573.49 549.3L572.85 552.15L572.1 554.96L571.24 557.71L570.27 560.43L569.21 563.09L568.04 565.7L566.78 568.25L565.42 570.75L563.97 573.19L562.42 575.57L560.79 577.88L559.08 580.13L557.28 582.31L555.4 584.42L553.44 586.45L551.41 588.41L549.3 590.29L547.13 592.09L544.88 593.8L542.57 595.43L540.19 596.97L537.75 598.42L535.25 599.78L532.69 601.05L530.08 602.21L527.42 603.28L524.71 604.24L521.95 605.1L519.15 605.86L516.3 606.5L513.41 607.03L510.49 607.45L507.53 607.75L504.53 607.94L501.51 608L73.48 608L70.46 607.94L67.46 607.75L64.5 607.45L61.58 607.03L58.69 606.5L55.84 605.86L53.04 605.1L50.28 604.24L47.57 603.28L44.91 602.21L42.3 601.05L39.74 599.78L37.24 598.42L34.8 596.97L32.43 595.43L30.11 593.8L27.86 592.09L25.69 590.29L23.58 588.41L21.55 586.45L19.59 584.42L17.71 582.31L15.91 580.13L14.2 577.88L12.57 575.57L11.02 573.19L9.57 570.75L8.21 568.25L6.95 565.7L5.78 563.09L4.72 560.43L3.75 557.71L2.89 554.96L2.14 552.15L1.5 549.3L0.96 546.42L0.55 543.49L0.24 540.53L0.06 537.54L0 534.51L0 396.17L0.01 395.68L0.02 395.2L0.05 394.72L0.09 394.24L0.15 393.76L0.21 393.28L0.28 392.81L0.37 392.34L0.47 391.87L0.57 391.41L0.69 390.95L0.82 390.49L0.96 390.04L1.11 389.59L1.28 389.14L1.45 388.7L1.63 388.26L1.82 387.83L2.02 387.4L2.24 386.98L2.46 386.56L2.69 386.15L2.93 385.75L3.18 385.34L3.45 384.95L3.72 384.56L4 384.18L4.28 383.8L4.58 383.43L4.89 383.07L5.21 382.71L5.53 382.37L5.87 382.02L6.21 381.69L6.56 381.36L6.92 381.05L7.29 380.74L7.67 380.43L8.05 380.14L8.44 379.86L8.84 379.58L9.25 379.31L9.66 379.06L10.08 378.82L10.5 378.58L10.92 378.36L11.35 378.15L11.78 377.95L12.22 377.76L12.66 377.58L13.11 377.41L13.56 377.25L14.01 377.1L14.46 376.97L14.92 376.84L15.38 376.73L15.84 376.62L16.3 376.53L16.77 376.45L17.24 376.38L17.71 376.32L18.18 376.27L18.65 376.23L19.12 376.21L19.59 376.19L20.07 376.19L20.54 376.2L21.02 376.21L21.49 376.24L21.96 376.29L22.44 376.34L22.91 376.4L23.38 376.48L23.85 376.57L24.32 376.67L24.79 376.78L25.25 376.9L25.72 377.03L26.18 377.18L26.64 377.33L27.13 377.5L27.61 377.67L28.1 377.83L28.59 377.98L29.08 378.14L29.57 378.28L30.06 378.43L30.55 378.57L31.05 378.7L31.54 378.83L32.03 378.96L32.53 379.08L33.03 379.2L33.53 379.32L34.02 379.43L34.52 379.53L35.02 379.63L35.53 379.73L36.03 379.82L36.53 379.91L37.04 379.99L37.54 380.07L38.04 380.15L38.55 380.22L39.06 380.29L39.56 380.35L40.07 380.41L40.58 380.46L41.09 380.51L41.6 380.56L42.11 380.6L42.62 380.64L43.13 380.67L43.65 380.7L44.16 380.72L44.67 380.74L45.19 380.76L45.7 380.77L46.22 380.77L46.73 380.78L49.21 380.73L51.67 380.58L54.09 380.33L56.49 379.99L58.86 379.55L61.2 379.02L63.5 378.4L65.76 377.7L67.98 376.91L70.17 376.03L72.31 375.07L74.41 374.04L76.45 372.92L78.46 371.73L80.41 370.47L82.3 369.13L84.15 367.72L85.93 366.25L87.66 364.71L89.33 363.1L90.94 361.43L92.48 359.71L93.95 357.92L95.36 356.08L96.7 354.18L97.96 352.23L99.15 350.23L100.27 348.18L101.3 346.08L102.26 343.94L103.14 341.76L103.93 339.53L104.63 337.27L105.25 334.97L105.78 332.63L106.21 330.27L106.56 327.87L106.8 325.44L106.95 322.98L107 320.5L106.95 318.02L106.8 315.57L106.56 313.14L106.21 310.74L105.78 308.37L105.25 306.03L104.63 303.73L103.93 301.47L103.14 299.25L102.26 297.06L101.3 294.92L100.27 292.82L99.15 290.78L97.96 288.77L96.7 286.82L95.36 284.93L93.95 283.08L92.48 281.3L90.94 279.57L89.33 277.9L87.66 276.29L85.93 274.75L84.15 273.28L82.3 271.87L80.41 270.53L78.46 269.27L76.45 268.08L74.41 266.96L72.31 265.93L70.17 264.97L67.98 264.1L65.76 263.31L63.5 262.6L61.2 261.98L58.86 261.45L56.49 261.02L54.09 260.67L51.67 260.43L49.21 260.28L46.73 260.23L46.22 260.23L45.7 260.24L45.19 260.25L44.67 260.26L44.16 260.28L43.65 260.31L43.14 260.33L42.62 260.37L42.11 260.4L41.6 260.44L41.09 260.49L40.58 260.54L40.07 260.59L39.57 260.65L39.06 260.71L38.55 260.78L38.05 260.85L37.54 260.93L37.04 261.01L36.53 261.09L36.03 261.18L35.53 261.27L35.03 261.37L34.52 261.47L34.02 261.57L33.53 261.68L33.03 261.8L32.53 261.92L32.03 262.04L31.54 262.17L31.04 262.3L30.55 262.43L30.06 262.57L29.56 262.72L29.07 262.86L28.58 263.02L28.1 263.17L27.61 263.33L27.12 263.5L26.64 263.67L26.18 263.82L25.71 263.97L25.25 264.1L24.78 264.22L24.32 264.33L23.85 264.43L23.38 264.52L22.9 264.59L22.43 264.66L21.96 264.71L21.49 264.75L21.01 264.78L20.54 264.8L20.06 264.81L19.59 264.81L19.12 264.79L18.64 264.76L18.17 264.73L17.7 264.68L17.23 264.62L16.77 264.55L16.3 264.47L15.84 264.38L15.38 264.27L14.92 264.16L14.46 264.03L14.01 263.9L13.55 263.75L13.11 263.59L12.66 263.42L12.22 263.24L11.78 263.05L11.35 262.85L10.92 262.64L10.5 262.42L10.08 262.18L9.66 261.94L9.25 261.68L8.84 261.42L8.44 261.14L8.05 260.86L7.67 260.56L7.29 260.26L6.92 259.95L6.56 259.63L6.21 259.31L5.87 258.97L5.53 258.63L5.21 258.28L4.89 257.93L4.58 257.56L4.28 257.19L4 256.82L3.72 256.43L3.45 256.05L3.18 255.65L2.93 255.25L2.69 254.84L2.46 254.43L2.24 254.01L2.02 253.59L1.82 253.16L1.63 252.73L1.45 252.29L1.28 251.85L1.11 251.41L0.96 250.96L0.82 250.51L0.69 250.05L0.57 249.59L0.47 249.12L0.37 248.66L0.28 248.19L0.21 247.71L0.15 247.24L0.09 246.76L0.05 246.28L0.02 245.8L0.01 245.32L0 244.83L0 106.49L0.06 103.46L0.24 100.47L0.55 97.51L0.96 94.58L1.5 91.7L2.14 88.85L2.89 86.05L3.75 83.29L4.72 80.57L5.78 77.91L6.95 75.3L8.21 72.75L9.57 70.25L11.02 67.81L12.57 65.43L14.2 63.12L15.91 60.87L17.71 58.69L19.59 56.58L21.55 54.55L23.58 52.59L25.69 50.71L27.86 48.91L30.11 47.2L32.43 45.57L34.8 44.03L37.24 42.58L39.74 41.22L42.3 39.95L44.91 38.79L47.57 37.72L50.28 36.75L53.04 35.89L55.84 35.14L58.69 34.5L61.58 33.97L64.5 33.55L67.46 33.25L70.46 33.06L73.48 33L74.87 33L77.3 32.99L80.71 32.97L85.05 32.94L90.25 32.91L96.27 32.87L103.05 32.83L110.53 32.79L118.66 32.74L127.38 32.69L136.63 32.63L146.37 32.58L156.52 32.52L167.05 32.46L177.89 32.41L188.98 32.35L200.28 32.3L211.72 32.25L223.26 32.2L234.82 32.16L246.37 32.12L257.83 32.08L269.17 32.05L280.31 32.03L291.22 32.01L301.82 32L312.06 32L321.89 32.01L331.26 32.03ZM580.22 260.25L579.71 260.26L579.19 260.28L578.68 260.31L578.17 260.33L577.66 260.37L577.15 260.4L576.64 260.44L576.13 260.49L575.62 260.54L575.11 260.59L574.6 260.65L574.09 260.71L573.59 260.78L573.08 260.85L572.57 260.93L572.07 261.01L571.56 261.09L571.06 261.18L570.56 261.27L570.06 261.37L569.56 261.47L569.06 261.57L568.56 261.68L568.06 261.8L567.56 261.92L567.07 262.04L566.57 262.17L566.08 262.3L565.58 262.43L565.09 262.57L564.6 262.72L564.11 262.86L563.62 263.02L563.13 263.17L562.64 263.33L562.15 263.5L561.67 263.67L561.21 263.82L560.75 263.97L560.28 264.1L559.82 264.22L559.35 264.33L558.88 264.43L558.41 264.52L557.94 264.59L557.47 264.66L556.99 264.71L556.52 264.75L556.04 264.78L555.57 264.8L555.1 264.81L554.62 264.81L554.15 264.79L553.68 264.76L553.21 264.73L552.73 264.68L552.27 264.62L551.8 264.55L551.33 264.47L550.87 264.38L550.41 264.27L549.95 264.16L549.49 264.03L549.04 263.9L548.58 263.75L548.14 263.59L547.69 263.42L547.25 263.24L546.81 263.05L546.38 262.85L545.95 262.64L545.53 262.42L545.11 262.18L544.69 261.94L544.28 261.68L543.87 261.42L543.47 261.14L543.08 260.86L542.7 260.56L542.32 260.26L541.95 259.95L541.59 259.63L541.24 259.31L540.9 258.97L540.56 258.63L540.24 258.28L539.92 257.93L539.61 257.56L539.31 257.19L539.02 256.82L538.74 256.43L538.47 256.05L538.21 255.65L537.96 255.25L537.72 254.84L537.49 254.43L537.27 254.01L537.05 253.59L536.85 253.16L536.66 252.73L536.48 252.29L536.3 251.85L536.14 251.41L535.99 250.96L535.85 250.51L535.72 250.05L535.6 249.59L535.5 249.12L535.4 248.66L535.31 248.19L535.24 247.71L535.17 247.24L535.12 246.76L535.08 246.28L535.05 245.8L535.03 245.32L535.03 244.83L535.03 106.49L535 105.11L534.92 103.74L534.78 102.39L534.59 101.06L534.35 99.74L534.05 98.44L533.71 97.16L533.32 95.9L532.88 94.66L532.39 93.45L531.86 92.26L531.28 91.09L530.66 89.95L530 88.84L529.3 87.76L528.55 86.7L527.77 85.67L526.95 84.68L526.09 83.72L525.2 82.79L524.27 81.9L523.31 81.04L522.32 80.22L521.3 79.44L520.24 78.7L519.16 77.99L518.04 77.33L516.9 76.71L515.74 76.13L514.55 75.6L513.33 75.11L512.09 74.67L510.84 74.28L509.56 73.94L508.26 73.64L506.94 73.4L505.61 73.21L504.26 73.07L502.89 72.99L501.51 72.96L73.48 72.96L72.1 72.99L70.74 73.07L69.38 73.21L68.05 73.4L66.73 73.64L65.44 73.94L64.16 74.28L62.9 74.67L61.66 75.11L60.45 75.6L59.26 76.13L58.09 76.71L56.95 77.33L55.84 77.99L54.75 78.7L53.7 79.44L52.67 80.22L51.68 81.04L50.72 81.9L49.79 82.79L48.9 83.72L48.04 84.68L47.22 85.67L46.44 86.7L45.69 87.76L44.99 88.84L44.33 89.95L43.71 91.09L43.13 92.26L42.6 93.45L42.11 94.66L41.67 95.9L41.28 97.16L40.94 98.44L40.64 99.74L40.4 101.06L40.21 102.39L40.07 103.74L39.99 105.11L39.96 106.49L39.96 220.49L40.13 220.48L40.3 220.47L40.47 220.46L40.64 220.45L40.8 220.44L40.97 220.43L41.14 220.42L41.31 220.41L41.48 220.4L41.65 220.39L41.82 220.38L41.99 220.38L42.16 220.37L42.32 220.36L42.49 220.35L42.66 220.35L42.83 220.34L43 220.33L43.17 220.33L43.34 220.32L43.51 220.32L43.68 220.31L43.85 220.31L44.02 220.3L44.19 220.3L44.36 220.29L44.53 220.29L44.69 220.29L44.86 220.28L45.03 220.28L45.2 220.28L45.37 220.28L45.54 220.27L45.71 220.27L45.88 220.27L46.05 220.27L46.22 220.27L46.39 220.27L46.56 220.27L46.73 220.27L50.86 220.35L54.94 220.6L58.98 221.01L62.97 221.58L66.91 222.31L70.79 223.18L74.61 224.21L78.38 225.39L82.08 226.7L85.71 228.16L89.27 229.75L92.75 231.47L96.16 233.33L99.49 235.31L102.73 237.41L105.89 239.63L108.95 241.97L111.93 244.42L114.8 246.99L117.57 249.66L120.24 252.43L122.81 255.31L125.26 258.28L127.6 261.34L129.82 264.5L131.93 267.74L133.91 271.07L135.76 274.48L137.48 277.96L139.08 281.52L140.53 285.15L141.85 288.85L143.02 292.62L144.05 296.44L144.93 300.33L145.65 304.26L146.22 308.25L146.63 312.29L146.88 316.38L146.97 320.5L146.88 324.63L146.63 328.71L146.22 332.75L145.65 336.74L144.93 340.68L144.05 344.56L143.02 348.39L141.85 352.15L140.53 355.85L139.08 359.48L137.48 363.04L135.76 366.53L133.91 369.93L131.93 373.26L129.82 376.51L127.6 379.66L125.26 382.73L122.81 385.7L120.24 388.57L117.57 391.35L114.8 394.02L111.93 396.58L108.95 399.03L105.89 401.37L102.73 403.59L99.49 405.7L96.16 407.68L92.75 409.53L89.27 411.26L85.71 412.85L82.08 414.3L78.38 415.62L74.61 416.79L70.79 417.82L66.91 418.7L62.97 419.42L58.98 419.99L54.94 420.4L50.86 420.65L46.73 420.74L46.56 420.74L46.39 420.74L46.22 420.74L46.05 420.73L45.88 420.73L45.71 420.73L45.54 420.73L45.37 420.73L45.2 420.73L45.03 420.72L44.86 420.72L44.69 420.72L44.53 420.71L44.36 420.71L44.19 420.7L44.02 420.7L43.85 420.7L43.68 420.69L43.51 420.68L43.34 420.68L43.17 420.67L43 420.67L42.83 420.66L42.66 420.65L42.49 420.65L42.32 420.64L42.16 420.63L41.99 420.62L41.82 420.62L41.65 420.61L41.48 420.6L41.31 420.59L41.14 420.58L40.97 420.57L40.8 420.56L40.64 420.55L40.47 420.54L40.3 420.53L40.13 420.52L39.96 420.51L39.96 534.51L39.99 535.89L40.07 537.26L40.21 538.61L40.4 539.94L40.64 541.26L40.94 542.56L41.28 543.84L41.67 545.1L42.11 546.33L42.6 547.55L43.13 548.74L43.71 549.91L44.33 551.05L44.99 552.16L45.69 553.24L46.44 554.3L47.22 555.32L48.04 556.32L48.9 557.28L49.79 558.21L50.72 559.1L51.68 559.96L52.67 560.78L53.7 561.56L54.75 562.3L55.84 563.01L56.95 563.67L58.09 564.29L59.26 564.87L60.45 565.4L61.66 565.88L62.9 566.32L64.16 566.72L65.44 567.06L66.73 567.35L68.05 567.6L69.38 567.79L70.74 567.92L72.1 568.01L73.48 568.04L74.87 568.03L77.3 568.02L80.71 568L85.05 567.98L90.25 567.94L96.27 567.91L103.05 567.87L110.53 567.82L118.66 567.77L127.38 567.72L136.63 567.67L146.37 567.61L156.52 567.56L167.05 567.5L177.89 567.44L188.98 567.39L200.28 567.34L211.72 567.28L223.26 567.24L234.82 567.19L246.37 567.15L257.83 567.12L269.17 567.09L280.31 567.06L291.22 567.05L301.82 567.04L312.06 567.04L321.89 567.04L331.26 567.06L340.1 567.09L348.37 567.12L356 567.17L362.93 567.23L369.13 567.31L374.52 567.39L379.05 567.49L382.67 567.6L385.33 567.73L386.95 567.88L387.5 568.04L501.51 568.04L502.89 568.01L504.26 567.92L505.61 567.79L506.94 567.6L508.26 567.35L509.56 567.06L510.84 566.72L512.09 566.32L513.33 565.88L514.55 565.4L515.74 564.87L516.9 564.29L518.04 563.67L519.16 563.01L520.24 562.3L521.3 561.56L522.32 560.78L523.31 559.96L524.27 559.1L525.2 558.21L526.09 557.28L526.95 556.32L527.77 555.32L528.55 554.3L529.3 553.24L530 552.16L530.66 551.05L531.28 549.91L531.86 548.74L532.39 547.55L532.88 546.33L533.32 545.1L533.71 543.84L534.05 542.56L534.35 541.26L534.59 539.94L534.78 538.61L534.92 537.26L535 535.89L535.03 534.51L535.03 396.17L535.03 395.68L535.05 395.2L535.08 394.72L535.12 394.24L535.17 393.76L535.24 393.28L535.31 392.81L535.4 392.34L535.5 391.87L535.6 391.41L535.72 390.95L535.85 390.49L535.99 390.04L536.14 389.59L536.31 389.14L536.48 388.7L536.66 388.26L536.85 387.83L537.06 387.4L537.27 386.98L537.49 386.56L537.72 386.15L537.96 385.75L538.22 385.34L538.48 384.95L538.75 384.56L539.03 384.18L539.32 383.8L539.62 383.43L539.92 383.07L540.24 382.71L540.57 382.37L540.9 382.02L541.24 381.69L541.6 381.36L541.96 381.05L542.32 380.74L542.7 380.43L543.09 380.14L543.48 379.86L543.88 379.58L544.28 379.31L544.7 379.06L545.11 378.82L545.53 378.58L545.96 378.36L546.39 378.15L546.82 377.95L547.26 377.76L547.7 377.58L548.14 377.41L548.59 377.25L549.04 377.1L549.5 376.97L549.95 376.84L550.41 376.73L550.87 376.62L551.34 376.53L551.8 376.45L552.27 376.38L552.74 376.32L553.21 376.27L553.68 376.23L554.15 376.21L554.63 376.19L555.1 376.19L555.58 376.2L556.05 376.21L556.52 376.24L557 376.29L557.47 376.34L557.94 376.4L558.42 376.48L558.89 376.57L559.35 376.67L559.82 376.78L560.29 376.9L560.75 377.03L561.22 377.18L561.67 377.33L562.16 377.5L562.65 377.67L563.13 377.83L563.62 377.98L564.11 378.14L564.6 378.28L565.09 378.43L565.58 378.57L566.08 378.7L566.57 378.83L567.07 378.96L567.56 379.08L568.06 379.2L568.56 379.32L569.06 379.43L569.56 379.53L570.06 379.63L570.56 379.73L571.06 379.82L571.56 379.91L572.07 379.99L572.57 380.07L573.08 380.15L573.58 380.22L574.09 380.29L574.6 380.35L575.11 380.41L575.61 380.46L576.12 380.51L576.63 380.56L577.14 380.6L577.66 380.64L578.17 380.67L578.68 380.7L579.19 380.72L579.71 380.74L580.22 380.76L580.73 380.77L581.25 380.77L581.76 380.78L584.25 380.73L586.7 380.58L589.13 380.33L591.53 379.99L593.9 379.55L596.23 379.02L598.53 378.4L600.79 377.7L603.02 376.91L605.2 376.03L607.34 375.07L609.44 374.04L611.49 372.92L613.49 371.73L615.44 370.47L617.34 369.13L619.18 367.72L620.97 366.25L622.7 364.71L624.36 363.1L625.97 361.43L627.51 359.71L628.99 357.92L630.39 356.08L631.73 354.18L633 352.23L634.19 350.23L635.3 348.18L636.34 346.08L637.29 343.94L638.17 341.76L638.96 339.53L639.67 337.27L640.28 334.97L640.81 332.63L641.25 330.27L641.59 327.87L641.84 325.44L641.99 322.98L642.04 320.5L641.99 318.02L641.84 315.57L641.59 313.14L641.25 310.74L640.81 308.37L640.28 306.03L639.67 303.73L638.96 301.47L638.17 299.25L637.29 297.06L636.34 294.92L635.3 292.82L634.19 290.78L633 288.77L631.73 286.82L630.39 284.93L628.99 283.08L627.51 281.3L625.97 279.57L624.36 277.9L622.7 276.29L620.97 274.75L619.18 273.28L617.34 271.87L615.44 270.53L613.49 269.27L611.49 268.08L609.44 266.96L607.34 265.93L605.2 264.97L603.02 264.1L600.79 263.31L598.53 262.6L596.23 261.98L593.9 261.45L591.53 261.02L589.13 260.67L586.7 260.43L584.25 260.28L581.76 260.23L581.25 260.23L580.74 260.24L580.22 260.25Z" id="b1WDa8rsn4"></path></defs><g><g><use xlink:href="#b1WDa8rsn4" opacity="1" fill="#000000" fill-opacity="1"></use><g><use xlink:href="#b1WDa8rsn4" opacity="1" fill-opacity="0" stroke="#000000" stroke-width="1" stroke-opacity="0"></use></g></g></g></svg>