<?xml version="1.0" encoding="UTF-8" standalone="no"?>
<!DOCTYPE svg PUBLIC "-//W3C//DTD SVG 1.1//EN" "http://www.w3.org/Graphics/SVG/1.1/DTD/svg11.dtd">
<svg version="1.1" xmlns="http://www.w3.org/2000/svg" xmlns:xlink="http://www.w3.org/1999/xlink" preserveAspectRatio="xMidYMid meet" viewBox="-0.9999999999999634 105.00622442514052 1113.4509803921567 579.9937755748595" width="1109.45" height="575.99"><defs><path d="M538.88 106.03L553.27 106.06L566.71 106.09L579.12 106.14L590.41 106.2L600.48 106.27L609.25 106.36L616.63 106.46L622.52 106.57L626.83 106.7L629.48 106.84L630.37 107L815.84 107L820.76 107.07L825.63 107.25L830.44 107.55L835.2 107.97L839.9 108.5L844.53 109.14L849.09 109.9L853.58 110.76L857.99 111.72L862.32 112.79L866.57 113.96L870.72 115.22L874.79 116.58L878.76 118.03L882.62 119.57L886.39 121.2L890.04 122.92L893.59 124.72L897.01 126.6L900.32 128.55L903.51 130.59L906.56 132.69L909.49 134.87L912.28 137.12L914.93 139.43L917.44 141.81L919.8 144.25L922.01 146.75L924.07 149.3L925.96 151.91L927.7 154.58L929.27 157.29L930.67 160.05L931.89 162.85L932.94 165.7L933.8 168.59L934.48 171.51L934.97 174.47L935.27 177.47L935.37 180.49L935.37 294.49L935.65 294.48L935.92 294.47L936.2 294.46L936.47 294.45L936.75 294.44L937.02 294.43L937.3 294.42L937.57 294.41L937.85 294.4L938.12 294.39L938.4 294.39L938.67 294.38L938.95 294.37L939.22 294.36L939.5 294.36L939.77 294.35L940.05 294.34L940.32 294.34L940.6 294.33L940.88 294.32L941.15 294.32L941.43 294.31L941.7 294.31L941.98 294.3L942.25 294.3L942.53 294.3L942.8 294.29L943.08 294.29L943.36 294.29L943.63 294.28L943.91 294.28L944.18 294.28L944.46 294.28L944.74 294.27L945.01 294.27L945.29 294.27L945.56 294.27L945.84 294.27L946.12 294.27L946.39 294.27L953.1 294.35L959.75 294.6L966.32 295.01L972.81 295.58L979.21 296.31L985.53 297.19L991.75 298.22L997.88 299.39L1003.89 300.7L1009.8 302.16L1015.59 303.75L1021.26 305.47L1026.81 307.33L1032.22 309.31L1037.5 311.41L1042.63 313.64L1047.62 315.97L1052.45 318.43L1057.13 320.99L1061.64 323.66L1065.98 326.44L1070.15 329.31L1074.14 332.28L1077.95 335.35L1081.56 338.5L1084.99 341.75L1088.21 345.07L1091.22 348.48L1094.03 351.97L1096.62 355.53L1098.98 359.16L1101.12 362.86L1103.03 366.62L1104.7 370.45L1106.13 374.33L1107.31 378.27L1108.24 382.26L1108.91 386.3L1109.31 390.38L1109.45 394.5L1109.31 398.63L1108.91 402.71L1108.24 406.75L1107.31 410.74L1106.13 414.68L1104.7 418.56L1103.03 422.39L1101.12 426.15L1098.98 429.85L1096.62 433.48L1094.03 437.04L1091.22 440.53L1088.21 443.94L1084.99 447.26L1081.56 450.51L1077.95 453.66L1074.14 456.73L1070.15 459.7L1065.98 462.57L1061.64 465.35L1057.13 468.02L1052.45 470.58L1047.62 473.04L1042.63 475.37L1037.5 477.6L1032.22 479.7L1026.81 481.68L1021.26 483.54L1015.59 485.26L1009.8 486.85L1003.89 488.31L997.88 489.62L991.75 490.79L985.53 491.82L979.21 492.7L972.81 493.43L966.32 494L959.75 494.41L953.1 494.66L946.39 494.74L946.12 494.74L945.84 494.74L945.56 494.74L945.29 494.74L945.01 494.74L944.74 494.74L944.46 494.73L944.18 494.73L943.91 494.73L943.63 494.73L943.36 494.72L943.08 494.72L942.8 494.72L942.53 494.71L942.25 494.71L941.98 494.7L941.7 494.7L941.43 494.69L941.15 494.69L940.88 494.68L940.6 494.68L940.32 494.67L940.05 494.66L939.77 494.66L939.5 494.65L939.22 494.64L938.95 494.64L938.67 494.63L938.4 494.62L938.12 494.61L937.85 494.6L937.57 494.59L937.3 494.58L937.02 494.57L936.75 494.56L936.47 494.55L936.2 494.54L935.92 494.53L935.65 494.52L935.37 494.51L935.37 608.51L935.27 611.54L934.97 614.53L934.48 617.49L933.8 620.42L932.94 623.31L931.89 626.15L930.67 628.96L929.27 631.72L927.7 634.43L925.96 637.09L924.07 639.7L922.01 642.26L919.8 644.76L917.44 647.2L914.93 649.57L912.28 651.89L909.49 654.13L906.56 656.31L903.51 658.42L900.32 660.45L897.01 662.41L893.59 664.29L890.04 666.09L886.39 667.8L882.62 669.43L878.76 670.98L874.79 672.43L870.72 673.79L866.57 675.05L862.32 676.22L857.99 677.28L853.58 678.25L849.09 679.11L844.53 679.86L839.9 680.5L835.2 681.04L830.44 681.45L825.63 681.76L820.76 681.94L815.84 682L119.53 682L114.62 681.94L109.75 681.76L104.93 681.45L100.17 681.04L95.47 680.5L90.84 679.86L86.28 679.11L81.79 678.25L77.38 677.28L73.05 676.22L68.8 675.05L64.65 673.79L60.58 672.43L56.62 670.98L52.75 669.43L48.98 667.8L45.33 666.09L41.79 664.29L38.36 662.41L35.05 660.45L31.87 658.42L28.81 656.31L25.88 654.13L23.09 651.89L20.44 649.57L17.93 647.2L15.57 644.76L13.36 642.26L11.31 639.7L9.41 637.09L7.67 634.43L6.1 631.72L4.71 628.96L3.48 626.15L2.43 623.31L1.57 620.42L0.89 617.49L0.4 614.53L0.1 611.54L0 608.51L0 470.17L0.01 469.68L0.04 469.2L0.09 468.72L0.15 468.24L0.24 467.76L0.34 467.28L0.46 466.81L0.6 466.34L0.76 465.87L0.93 465.41L1.13 464.95L1.34 464.49L1.57 464.04L1.81 463.59L2.07 463.14L2.35 462.7L2.65 462.27L2.96 461.83L3.29 461.41L3.64 460.98L4 460.57L4.38 460.16L4.77 459.75L5.18 459.35L5.6 458.95L6.04 458.56L6.5 458.18L6.97 457.81L7.46 457.44L7.96 457.07L8.47 456.72L9 456.37L9.54 456.03L10.1 455.69L10.67 455.37L11.26 455.05L11.86 454.74L12.47 454.44L13.1 454.14L13.74 453.86L14.39 453.58L15.05 453.32L15.72 453.06L16.39 452.82L17.08 452.59L17.77 452.36L18.47 452.15L19.17 451.95L19.88 451.76L20.6 451.58L21.32 451.41L22.05 451.25L22.79 451.1L23.52 450.97L24.27 450.84L25.02 450.73L25.77 450.62L26.52 450.53L27.28 450.45L28.04 450.38L28.8 450.32L29.57 450.27L30.34 450.24L31.1 450.21L31.87 450.19L32.64 450.19L33.42 450.2L34.19 450.22L34.96 450.25L35.73 450.29L36.5 450.34L37.27 450.41L38.03 450.48L38.8 450.57L39.56 450.67L40.32 450.78L41.08 450.9L41.84 451.03L42.59 451.18L43.34 451.33L44.13 451.5L44.92 451.67L45.71 451.83L46.51 451.99L47.3 452.14L48.1 452.29L48.9 452.43L49.7 452.57L50.5 452.71L51.31 452.84L52.11 452.96L52.92 453.09L53.73 453.2L54.54 453.32L55.35 453.43L56.16 453.53L56.98 453.64L57.79 453.73L58.61 453.83L59.43 453.91L60.25 454L61.07 454.08L61.89 454.15L62.71 454.22L63.54 454.29L64.36 454.35L65.19 454.41L66.02 454.47L66.84 454.52L67.67 454.56L68.5 454.6L69.34 454.64L70.17 454.67L71 454.7L71.84 454.73L72.67 454.74L73.51 454.76L74.34 454.77L75.18 454.78L76.02 454.78L80.05 454.73L84.05 454.58L88 454.33L91.9 453.99L95.75 453.55L99.55 453.02L103.29 452.41L106.98 451.7L110.6 450.91L114.15 450.03L117.63 449.08L121.04 448.04L124.37 446.93L127.63 445.74L130.8 444.47L133.89 443.13L136.89 441.73L139.79 440.25L142.61 438.71L145.32 437.1L147.93 435.44L150.44 433.71L152.84 431.92L155.13 430.08L157.3 428.18L159.36 426.23L161.3 424.23L163.11 422.18L164.8 420.08L166.35 417.94L167.78 415.76L169.06 413.54L170.21 411.27L171.22 408.97L172.08 406.64L172.79 404.27L173.34 401.87L173.75 399.44L173.99 396.99L174.07 394.5L173.99 392.02L173.75 389.57L173.34 387.14L172.79 384.74L172.08 382.37L171.22 380.04L170.21 377.74L169.06 375.47L167.78 373.25L166.35 371.06L164.8 368.92L163.11 366.83L161.3 364.78L159.36 362.78L157.3 360.83L155.13 358.93L152.84 357.09L150.44 355.3L147.93 353.57L145.32 351.9L142.61 350.3L139.79 348.76L136.89 347.28L133.89 345.87L130.8 344.54L127.63 343.27L124.37 342.08L121.04 340.97L117.63 339.93L114.15 338.97L110.6 338.1L106.98 337.31L103.29 336.6L99.55 335.99L95.75 335.46L91.9 335.02L88 334.68L84.05 334.43L80.05 334.28L76.02 334.23L75.18 334.23L74.34 334.24L73.51 334.25L72.67 334.27L71.84 334.28L71 334.31L70.17 334.34L69.34 334.37L68.51 334.41L67.68 334.45L66.85 334.49L66.02 334.54L65.19 334.6L64.37 334.65L63.54 334.72L62.72 334.78L61.89 334.85L61.07 334.93L60.25 335.01L59.43 335.09L58.61 335.18L57.79 335.27L56.98 335.37L56.16 335.47L55.35 335.58L54.54 335.69L53.73 335.8L52.92 335.92L52.11 336.04L51.3 336.17L50.5 336.3L49.7 336.44L48.9 336.57L48.1 336.72L47.3 336.87L46.5 337.02L45.7 337.18L44.91 337.34L44.12 337.5L43.33 337.67L42.58 337.83L41.83 337.97L41.07 338.1L40.32 338.23L39.56 338.34L38.79 338.43L38.03 338.52L37.26 338.6L36.49 338.66L35.72 338.71L34.95 338.75L34.18 338.79L33.41 338.8L32.64 338.81L31.87 338.81L31.1 338.79L30.33 338.77L29.56 338.73L28.8 338.68L28.04 338.62L27.27 338.55L26.52 338.47L25.76 338.38L25.01 338.27L24.27 338.16L23.52 338.04L22.78 337.9L22.05 337.75L21.32 337.59L20.6 337.42L19.88 337.25L19.17 337.05L18.46 336.85L17.77 336.64L17.08 336.42L16.39 336.19L15.72 335.94L15.05 335.69L14.39 335.42L13.74 335.15L13.1 334.86L12.47 334.57L11.86 334.26L11.26 333.95L10.67 333.64L10.1 333.31L9.54 332.98L9 332.63L8.47 332.28L7.96 331.93L7.46 331.57L6.97 331.2L6.5 330.82L6.04 330.44L5.6 330.05L5.18 329.65L4.77 329.25L4.38 328.85L4 328.43L3.64 328.02L3.29 327.59L2.96 327.17L2.65 326.73L2.35 326.3L2.07 325.86L1.81 325.41L1.57 324.96L1.34 324.51L1.13 324.05L0.93 323.59L0.76 323.13L0.6 322.66L0.46 322.19L0.34 321.72L0.24 321.24L0.15 320.77L0.09 320.29L0.04 319.8L0.01 319.32L0 318.83L0 180.49L0.1 177.47L0.4 174.47L0.89 171.51L1.57 168.59L2.43 165.7L3.48 162.85L4.71 160.05L6.1 157.29L7.67 154.58L9.41 151.91L11.31 149.3L13.36 146.75L15.57 144.25L17.93 141.81L20.44 139.43L23.09 137.12L25.88 134.87L28.81 132.69L31.87 130.59L35.05 128.55L38.36 126.6L41.79 124.72L45.33 122.92L48.98 121.2L52.75 119.57L56.62 118.03L60.58 116.58L64.65 115.22L68.8 113.96L73.05 112.79L77.38 111.72L81.79 110.76L86.28 109.9L90.84 109.14L95.47 108.5L100.17 107.97L104.93 107.55L109.75 107.25L114.62 107.07L119.53 107L121.8 107L125.75 106.99L131.3 106.97L138.35 106.94L146.82 106.91L156.61 106.88L167.64 106.83L179.81 106.79L193.03 106.74L207.21 106.69L222.27 106.64L238.1 106.58L254.63 106.52L271.75 106.47L289.38 106.41L307.43 106.36L325.81 106.3L344.42 106.25L363.18 106.21L382 106.16L400.78 106.12L419.44 106.09L437.87 106.06L456 106.03L473.74 106.02L490.98 106.01L507.65 106.01L523.64 106.01L538.88 106.03ZM117.29 146.99L115.07 147.08L112.87 147.21L110.7 147.41L108.56 147.65L106.45 147.94L104.37 148.29L102.32 148.68L100.31 149.12L98.33 149.6L96.39 150.14L94.5 150.71L92.64 151.33L90.83 152L89.07 152.7L87.35 153.44L85.69 154.22L84.07 155.05L82.51 155.9L81 156.8L79.54 157.72L78.15 158.68L76.81 159.68L75.54 160.7L74.33 161.76L73.19 162.84L72.11 163.96L71.1 165.1L70.16 166.26L69.3 167.45L68.51 168.67L67.79 169.9L67.15 171.16L66.59 172.44L66.12 173.74L65.72 175.06L65.41 176.39L65.19 177.74L65.05 179.11L65.01 180.49L65.01 294.49L65.28 294.48L65.56 294.47L65.83 294.46L66.1 294.45L66.38 294.44L66.65 294.43L66.93 294.42L67.2 294.41L67.48 294.4L67.75 294.39L68.03 294.39L68.3 294.38L68.58 294.37L68.85 294.36L69.13 294.36L69.4 294.35L69.68 294.34L69.95 294.34L70.23 294.33L70.5 294.32L70.78 294.32L71.05 294.31L71.33 294.31L71.61 294.3L71.88 294.3L72.16 294.3L72.43 294.29L72.71 294.29L72.98 294.29L73.26 294.28L73.54 294.28L73.81 294.28L74.09 294.28L74.36 294.27L74.64 294.27L74.91 294.27L75.19 294.27L75.47 294.27L75.74 294.27L76.02 294.27L82.73 294.35L89.37 294.6L95.94 295.01L102.43 295.58L108.84 296.31L115.16 297.19L121.38 298.22L127.5 299.39L133.52 300.7L139.43 302.16L145.22 303.75L150.89 305.47L156.43 307.33L161.85 309.31L167.12 311.41L172.26 313.64L177.24 315.97L182.08 318.43L186.75 320.99L191.26 323.66L195.61 326.44L199.78 329.31L203.77 332.28L207.58 335.35L211.19 338.5L214.61 341.75L217.83 345.07L220.85 348.48L223.65 351.97L226.24 355.53L228.61 359.16L230.75 362.86L232.66 366.62L234.33 370.45L235.76 374.33L236.94 378.27L237.87 382.26L238.54 386.3L238.94 390.38L239.08 394.5L238.94 398.63L238.54 402.71L237.87 406.75L236.94 410.74L235.76 414.68L234.33 418.56L232.66 422.39L230.75 426.15L228.61 429.85L226.24 433.48L223.65 437.04L220.85 440.53L217.83 443.94L214.61 447.26L211.19 450.51L207.58 453.66L203.77 456.73L199.78 459.7L195.61 462.57L191.26 465.35L186.75 468.02L182.08 470.58L177.24 473.04L172.26 475.37L167.12 477.6L161.85 479.7L156.43 481.68L150.89 483.54L145.22 485.26L139.43 486.85L133.52 488.31L127.5 489.62L121.38 490.79L115.16 491.82L108.84 492.7L102.43 493.43L95.94 494L89.37 494.41L82.73 494.66L76.02 494.74L75.74 494.74L75.47 494.74L75.19 494.74L74.91 494.74L74.64 494.74L74.36 494.74L74.09 494.73L73.81 494.73L73.54 494.73L73.26 494.73L72.98 494.72L72.71 494.72L72.43 494.72L72.16 494.71L71.88 494.71L71.61 494.7L71.33 494.7L71.05 494.69L70.78 494.69L70.5 494.68L70.23 494.68L69.95 494.67L69.68 494.66L69.4 494.66L69.13 494.65L68.85 494.64L68.58 494.64L68.3 494.63L68.03 494.62L67.75 494.61L67.48 494.6L67.2 494.59L66.93 494.58L66.65 494.57L66.38 494.56L66.1 494.55L65.83 494.54L65.56 494.53L65.28 494.52L65.01 494.51L65.01 608.51L65.05 609.89L65.19 611.26L65.41 612.61L65.72 613.95L66.12 615.26L66.59 616.56L67.15 617.84L67.79 619.1L68.51 620.34L69.3 621.55L70.16 622.74L71.1 623.91L72.11 625.05L73.19 626.16L74.33 627.25L75.54 628.3L76.81 629.33L78.15 630.32L79.54 631.28L81 632.21L82.51 633.1L84.07 633.96L85.69 634.78L87.35 635.56L89.07 636.31L90.83 637.01L92.64 637.67L94.5 638.29L96.39 638.87L98.33 639.4L100.31 639.89L102.32 640.33L104.37 640.72L106.45 641.06L108.56 641.36L110.7 641.6L112.87 641.79L115.07 641.93L117.29 642.01L119.53 642.04L121.8 642.03L125.75 642.02L131.3 642L138.35 641.98L146.82 641.95L156.61 641.91L167.64 641.87L179.81 641.82L193.03 641.77L207.21 641.72L222.27 641.67L238.1 641.61L254.63 641.56L271.75 641.5L289.38 641.45L307.43 641.39L325.81 641.34L344.42 641.29L363.18 641.24L382 641.2L400.78 641.16L419.44 641.12L437.87 641.09L456 641.07L473.74 641.05L490.98 641.04L507.65 641.04L523.64 641.05L538.88 641.06L553.27 641.09L566.71 641.13L579.12 641.18L590.41 641.24L600.48 641.31L609.25 641.39L616.63 641.49L622.52 641.61L626.83 641.73L629.48 641.88L630.37 642.04L815.84 642.04L818.08 642.01L820.3 641.93L822.5 641.79L824.67 641.6L826.81 641.36L828.93 641.06L831.01 640.72L833.06 640.33L835.07 639.89L837.04 639.4L838.98 638.87L840.88 638.29L842.73 637.67L844.54 637.01L846.31 636.31L848.02 635.56L849.69 634.78L851.31 633.96L852.87 633.1L854.38 632.21L855.83 631.28L857.22 630.32L858.56 629.33L859.83 628.3L861.04 627.25L862.19 626.16L863.26 625.05L864.27 623.91L865.21 622.74L866.07 621.55L866.87 620.34L867.58 619.1L868.22 617.84L868.78 616.56L869.25 615.26L869.65 613.95L869.96 612.61L870.18 611.26L870.32 609.89L870.36 608.51L870.36 470.17L870.37 469.68L870.4 469.2L870.45 468.72L870.52 468.24L870.6 467.76L870.71 467.28L870.83 466.81L870.97 466.34L871.12 465.87L871.3 465.41L871.49 464.95L871.71 464.49L871.93 464.04L872.18 463.59L872.44 463.14L872.72 462.7L873.02 462.27L873.33 461.83L873.66 461.41L874.01 460.98L874.37 460.57L874.75 460.16L875.14 459.75L875.55 459.35L875.97 458.95L876.42 458.56L876.87 458.18L877.34 457.81L877.83 457.44L878.33 457.07L878.84 456.72L879.37 456.37L879.92 456.03L880.47 455.69L881.05 455.37L881.63 455.05L882.23 454.74L882.84 454.44L883.47 454.14L884.11 453.86L884.76 453.58L885.42 453.32L886.09 453.06L886.76 452.82L887.45 452.59L888.14 452.36L888.84 452.15L889.54 451.95L890.25 451.76L890.97 451.58L891.7 451.41L892.42 451.25L893.16 451.1L893.9 450.97L894.64 450.84L895.39 450.73L896.14 450.62L896.89 450.53L897.65 450.45L898.41 450.38L899.18 450.32L899.94 450.27L900.71 450.24L901.48 450.21L902.25 450.19L903.02 450.19L903.79 450.2L904.56 450.22L905.33 450.25L906.1 450.29L906.87 450.34L907.64 450.41L908.41 450.48L909.17 450.57L909.94 450.67L910.7 450.78L911.46 450.9L912.21 451.03L912.96 451.18L913.71 451.33L914.5 451.5L915.29 451.67L916.08 451.83L916.88 451.99L917.67 452.14L918.47 452.29L919.27 452.43L920.07 452.57L920.87 452.71L921.68 452.84L922.48 452.96L923.29 453.09L924.1 453.2L924.91 453.32L925.72 453.43L926.53 453.53L927.35 453.64L928.16 453.73L928.98 453.83L929.8 453.91L930.62 454L931.44 454.08L932.26 454.15L933.08 454.22L933.91 454.29L934.73 454.35L935.56 454.41L936.39 454.47L937.22 454.52L938.05 454.56L938.88 454.6L939.71 454.64L940.54 454.67L941.37 454.7L942.21 454.73L943.04 454.74L943.88 454.76L944.72 454.77L945.55 454.78L946.39 454.78L950.43 454.73L954.42 454.58L958.37 454.33L962.27 453.99L966.13 453.55L969.93 453.02L973.67 452.41L977.35 451.7L980.97 450.91L984.52 450.03L988 449.08L991.41 448.04L994.75 446.93L998 445.74L1001.17 444.47L1004.26 443.13L1007.26 441.73L1010.17 440.25L1012.98 438.71L1015.69 437.1L1018.3 435.44L1020.81 433.71L1023.21 431.92L1025.5 430.08L1027.67 428.18L1029.73 426.23L1031.67 424.23L1033.48 422.18L1035.17 420.08L1036.73 417.94L1038.15 415.76L1039.44 413.54L1040.58 411.27L1041.59 408.97L1042.45 406.64L1043.16 404.27L1043.72 401.87L1044.12 399.44L1044.36 396.99L1044.44 394.5L1044.36 392.02L1044.12 389.57L1043.72 387.14L1043.16 384.74L1042.45 382.37L1041.59 380.04L1040.58 377.74L1039.44 375.47L1038.15 373.25L1036.73 371.06L1035.17 368.92L1033.48 366.83L1031.67 364.78L1029.73 362.78L1027.67 360.83L1025.5 358.93L1023.21 357.09L1020.81 355.3L1018.3 353.57L1015.69 351.9L1012.98 350.3L1010.17 348.76L1007.26 347.28L1004.26 345.87L1001.17 344.54L998 343.27L994.75 342.08L991.41 340.97L988 339.93L984.52 338.97L980.97 338.1L977.35 337.31L973.67 336.6L969.93 335.99L966.13 335.46L962.27 335.02L958.37 334.68L954.42 334.43L950.43 334.28L946.39 334.23L945.55 334.23L944.72 334.24L943.88 334.25L943.05 334.27L942.21 334.28L941.38 334.31L940.54 334.34L939.71 334.37L938.88 334.41L938.05 334.45L937.22 334.49L936.39 334.54L935.56 334.6L934.74 334.65L933.91 334.72L933.09 334.78L932.26 334.85L931.44 334.93L930.62 335.01L929.8 335.09L928.98 335.18L928.16 335.27L927.35 335.37L926.53 335.47L925.72 335.58L924.91 335.69L924.1 335.8L923.29 335.92L922.48 336.04L921.67 336.17L920.87 336.3L920.07 336.44L919.26 336.57L918.47 336.72L917.67 336.87L916.87 337.02L916.08 337.18L915.28 337.34L914.49 337.5L913.7 337.67L912.95 337.83L912.2 337.97L911.45 338.1L910.69 338.23L909.93 338.34L909.16 338.43L908.4 338.52L907.63 338.6L906.86 338.66L906.09 338.71L905.32 338.75L904.55 338.79L903.78 338.8L903.01 338.81L902.24 338.81L901.47 338.79L900.7 338.77L899.93 338.73L899.17 338.68L898.4 338.62L897.64 338.55L896.89 338.47L896.13 338.38L895.38 338.27L894.63 338.16L893.89 338.04L893.15 337.9L892.42 337.75L891.69 337.59L890.96 337.42L890.25 337.25L889.53 337.05L888.83 336.85L888.13 336.64L887.44 336.42L886.76 336.19L886.08 335.94L885.41 335.69L884.75 335.42L884.1 335.15L883.46 334.86L882.84 334.57L882.22 334.26L881.62 333.95L881.04 333.64L880.47 333.31L879.91 332.98L879.36 332.63L878.84 332.28L878.32 331.93L877.82 331.57L877.33 331.2L876.86 330.82L876.41 330.44L875.97 330.05L875.54 329.65L875.13 329.25L874.74 328.85L874.36 328.43L874 328.02L873.66 327.59L873.33 327.17L873.01 326.73L872.72 326.3L872.44 325.86L872.18 325.41L871.93 324.96L871.7 324.51L871.49 324.05L871.3 323.59L871.12 323.13L870.97 322.66L870.83 322.19L870.7 321.72L870.6 321.24L870.52 320.77L870.45 320.29L870.4 319.8L870.37 319.32L870.36 318.83L870.36 180.49L870.32 179.11L870.18 177.74L869.96 176.39L869.65 175.06L869.25 173.74L868.78 172.44L868.22 171.16L867.58 169.9L866.87 168.67L866.07 167.45L865.21 166.26L864.27 165.1L863.26 163.96L862.19 162.84L861.04 161.76L859.83 160.7L858.56 159.68L857.22 158.68L855.83 157.72L854.38 156.8L852.87 155.9L851.31 155.05L849.69 154.22L848.02 153.44L846.31 152.7L844.54 152L842.73 151.33L840.88 150.71L838.98 150.14L837.04 149.6L835.07 149.12L833.06 148.68L831.01 148.29L828.93 147.94L826.81 147.65L824.67 147.41L822.5 147.21L820.3 147.08L818.08 146.99L815.84 146.97L119.53 146.97L117.29 146.99Z" id="b12AgGJCFr"></path></defs><g><g><use xlink:href="#b12AgGJCFr" opacity="1" fill="#000000" fill-opacity="1"></use><g><use xlink:href="#b12AgGJCFr" opacity="1" fill-opacity="0" stroke="#000000" stroke-width="1" stroke-opacity="0"></use></g></g></g></svg>