<?xml version="1.0" encoding="UTF-8" standalone="no"?>
<!DOCTYPE svg PUBLIC "-//W3C//DTD SVG 1.1//EN" "http://www.w3.org/Graphics/SVG/1.1/DTD/svg11.dtd">
<svg version="1.1" xmlns="http://www.w3.org/2000/svg" xmlns:xlink="http://www.w3.org/1999/xlink" preserveAspectRatio="xMidYMid meet" viewBox="-1.0000000000000009 17.416057588541165 492.9990005651095 456.16788482291764" width="150" height="95"><defs><path d="M389.58 243.69C385.87 245.95 381.23 246.04 377.44 243.91C373.66 241.78 371.33 237.77 371.33 233.43C371.33 225.62 371.33 163.13 371.33 155.32C371.33 143.3 361.22 133.63 349.2 133.63C339.63 133.63 263.07 133.63 253.5 133.63C249.25 133.63 245.32 131.38 243.16 127.72C241 124.06 240.93 119.53 242.99 115.81C248.2 106.39 251.17 95.53 251.17 84.01C251.17 47.79 221.82 18.42 185.59 18.42C149.38 18.42 120.03 47.8 120.03 84.02C120.03 95.54 122.99 106.39 128.21 115.81C130.27 119.53 130.21 124.07 128.05 127.73C125.88 131.39 121.95 133.63 117.7 133.63C108.13 133.63 31.57 133.63 22 133.63C9.98 133.63 0 143.3 0 155.32C0 162.94 0 223.89 0 231.51C0 235.74 2.23 239.66 5.86 241.82C9.49 243.99 14 244.09 17.71 242.08C26.98 237.07 37.58 234.23 48.85 234.23C85.07 234.23 114.43 263.59 114.43 299.81C114.43 336.03 85.07 365.39 48.85 365.38C37.58 365.38 26.98 362.53 17.71 357.52C13.99 355.51 9.48 355.61 5.85 357.77C2.21 359.94 0 363.86 0 368.1C0 376.17 0 440.74 0 448.81C0 460.84 9.97 470.58 22 470.58C54.72 470.58 316.48 470.58 349.2 470.58C361.22 470.58 371.33 460.84 371.33 448.81C371.33 440.55 371.33 374.44 371.33 366.18C371.33 361.84 373.67 357.83 377.45 355.71C381.23 353.58 385.87 353.65 389.58 355.91C399.43 361.92 411 365.38 423.43 365.38C459.65 365.39 489 336.03 489 299.81C489 263.59 459.65 234.22 423.43 234.23C411 234.23 399.43 237.68 389.58 243.69Z" id="aaXRSjWUF"></path></defs><g><g><use xlink:href="#aaXRSjWUF" opacity="1" fill="#000000" fill-opacity="1"></use><g><use xlink:href="#aaXRSjWUF" opacity="1" fill-opacity="0" stroke="#000000" stroke-width="1" stroke-opacity="0"></use></g></g></g></svg>