<svg version="1" xmlns="http://www.w3.org/2000/svg" width="325.333" height="325.333" viewBox="0 0 244.000000 244.000000"><path d="M117.4 5.5c-.3.8-.1 2.7.5 4.2 1 2.6 1 2.6.5-.9-.6-3.6-.6-3.7 3.3-4.1l3.8-.4-3.8-.1c-2.5-.1-4 .3-4.3 1.3zM116.7 17c-.9 2.2-1.7 4.6-1.6 5.3 0 .6.4.2.9-1.1.5-1.2 1.6-2.2 2.5-2.2.8 0 1.5-.5 1.5-1 0-.6-.4-1-.9-1s-.7-.9-.4-2c.9-3.3-.1-2.3-2 2zM122 16.1c0 .5.5.7 1 .4.6-.3 1 .1 1 .9 0 .9 1.7 2.3 3.8 3.1 2.6 1.1 4.1 2.5 4.9 4.6.7 1.7 1.6 2.8 2.2 2.5 1.2-.8-3-7.3-5.9-9.3-1.6-1.1-2-1.1-2-.1 0 .7-.7.2-1.6-1-1.6-2.3-3.4-2.9-3.4-1.1z"/><path d="M126.3 23.8c-.9 1.5-.7 2.3.8 4.3l2 2.4-1.2-2.7c-.9-2.1-.9-3.1.1-4.3.7-.8.8-1.5.4-1.5-.5 0-1.4.8-2.1 1.8zM109.3 26.7c-2.5 3.7-4.5 8.3-3.5 8.3.4 0 1.5-1.9 2.4-4.1 1.2-2.8 2.2-4 3.2-3.6 1 .4 1.2 0 .9-1.4-.7-2.5-.8-2.4-3 .8zM114 25.3c0 .7 1.7 1.2 4.4 1.3 2.5 0 4.3-.4 4-.8-.3-.5-.9-.6-1.3-.3-.5.2-2.2 0-4-.5-2.2-.6-3.1-.5-3.1.3z"/><path d="M114.8 30.7c.4 1.9 1.1 2.3 4.1 2.4 2.9 0 3.2.2 1.6.9-1.1.4-3.2.5-4.7.3-2.5-.5-2.8-.3-2.6 2.1.2 1.7.7 2.5 1.5 2.2.7-.3 1.3-.2 1.3.3 0 1 6.1.1 7.8-1.1.9-.8 1.2-.3 1.3 1.8 0 2.5.2 2.6.8.9.5-1.1.7-3 .6-4.3-.1-1.2.3-2.1.9-2 .6.1 2.5-.5 4.1-1.4l3-1.6-2.7.1c-1.6.1-2.8.5-2.8.9 0 .5-.7.8-1.6.8-.8 0-1.2-.5-.9-1 .3-.6-.1-1-.9-1-.9 0-1.6-.6-1.6-1.4 0-1.1-1.2-1.4-4.8-1.3-4.4.2-4.8.4-4.4 2.4zm3.7-.7c.3.5-.1 1-.9 1-.9 0-1.6-.5-1.6-1 0-.6.4-1 .9-1 .6 0 1.3.4 1.6 1z"/><path d="M135.5 32.9c.7 2.4-.9 3.5-3.4 2.2-2.1-1.2-3.8.2-3.6 2.9 0 .8-.4 1.8-.9 2.2-.6.4-.7 1-.3 1.5.5.4 1.2.1 1.7-.7.7-1.1 1.1-1.1 2.3-.1 1 .8 1.7.9 2.2.1.4-.7 1.2-.7 2.4 0 1 .5 2.1.7 2.3.4.3-.3.8.9 1 2.5.2 1.7 0 2.7-.5 2.4-.5-.3-.6.4-.2 1.6.7 2.2.6 2.2-3.2.6-2.1-.9-4.4-1.9-5-2.2-.9-.4-1.3.6-1.3 3.1 0 3.3.2 3.6 1.9 2.6 1.1-.5 2.1-1.5 2.3-2.2.2-.6 1-.8 1.6-.4 1.4.8.3 3.3-2.5 6.1-1.6 1.6-1.7 1.6-2.4-.1-.5-1.1-.6 4.3-.3 12 .2 7.6.7 14.2 1 14.7 1.6 2.6 2.3-.1 2-8.2-.3-7.5-.1-9.2 1.2-9.6 1.4-.6 1.4-.7-.1-1.2-1.5-.6-1.5-.7.2-1.8s1.8-.7 2 5.5c.1 3.7.6 10.4 1.2 15s.9 8.5.7 8.8c-1.1 1-6.8-1.9-7.4-3.8-.4-1.4-.8-1.7-1.4-.8-.9 1.5-2-11.6-2-25 0-10.6-.5-16.8-1.5-17.8-.3-.3-.5 0-.5.6 0 .7-1 1.2-2.2 1.3-2.2 0-2.2.1-.3.9 1.6.7 1.3.9-1.7.9-3.5.1-3.8.3-3.8 3 0 2.1.6 3 2.2 3.4 1.2.4 1.9.9 1.5 1.3-.4.4.7 1.5 2.3 2.5 3.3 2.1 3.4 2.6 2.4 15.2l-.7 7.6-4.8-.2-4.9-.2v-3.7c0-2 .3-3.9.8-4.1.4-.3 2.4.1 4.5.8 4.3 1.5 4.4 1.2 1.7-3.3-1.4-2.2-2.7-3.2-4.4-3.2-2.9 0-3.2-1.4-2.8-11.8.3-6.4.6-7.4 2.5-8.1l2.2-.8-2.3-.7c-1.3-.4-2.2-1.5-2.2-2.7 0-1-.4-1.9-.8-1.9-.5 0-.9 4.4-1 9.7-.5 35.3-.7 39.6-2.1 40.1-1 .3-1.2-.1-.8-1.4.6-1.7.6-1.7-.5-.3-1.2 1.5-5 3.9-6.2 3.9-.3 0-.6-1.4-.6-3 0-2.3.4-3 2-3 1.9 0 2-.7 2-11.1 0-10.3.1-11 1.9-10.4 1.6.5 1.9-.1 2.3-4.7.3-2.9.2-6.2-.3-7.3-.7-1.8-.8-1.7-.8.7-.1 2.6-.3 2.7-2.5 1.6-3.8-1.6-3.9-3.6-.5-5.3 1.6-.9 3.4-1.3 3.9-1 .6.3 1 .2 1-.3 0-1.5-2.5-2.1-4.1-1.1-2.2 1.4-4.6 1.1-4.6-.6 0-.9 1-1.5 2.3-1.5 1.3 0 2.5-.4 2.8-.9.3-.4-.7-.7-2.2-.5-2.4.3-2.3.2.6-.8 1.7-.6 3.2-1.5 3.2-2s.4-.7.9-.4c.9.6.5-4.9-.4-6.4-.3-.5-1.4-.2-2.3.8-1.6 1.5-1.6 1.8-.3 2.8 1.2 1 1.2 1.3-.7 2.3-1.5.8-2.3.8-2.8 0s-1-.6-1.6.5c-.5.9-.6 2-.3 2.6.3.5-.4 1.4-1.5 2-2.4 1.3-2.6 3-.4 3 1.4 0 1.5 2.2.9 20.2-.8 24.4-1.3 34.3-1.5 34.3-.1 0-.4 8.3-.6 18.4-.3 10.1-1 19.3-1.5 20.4-.8 1.4-.8 1.8 0 1.3.6-.4 1.1-.2 1.1.3 0 .6-.4 1.1-.8 1.1-.5 0-.8 1.2-.7 2.7.1 1.6-.2 3.3-.7 3.9-.5.7-.4 2.3.2 3.8.5 1.5.6 2.6 0 2.6-.4 0-1-.6-1.3-1.3-.2-.6-.3-.4-.2.5.2 1-.1 2.1-.7 2.4-.6.4-.5 1 .3 1.5 2.5 1.5 3.9-1.2 3.9-7.3 0-3.3.4-5.7.9-5.4.5.4 1.2 0 1.4-.6.3-.7.6 2.2.6 6.5.1 5-.3 7.6-.9 7.2-.5-.3-1-.2-1 .4 0 .5-1.3 1.2-3 1.6-1.6.4-3.2 1-3.5 1.5-.3.5.9.4 2.7 0 9.6-2.6 17.3-3.7 26.8-3.9 9.2-.2 18.8 1.3 20.5 3.1.7.8.6.9-.2.4-1.6-.9-18.3-2.4-17.8-1.6.2.3-4 .5-9.3.4-5.3-.1-10.1.2-10.7.6-.5.4-2.8 1.1-5 1.4-4.7.9-16.1 6.1-19.2 9-1.3 1.1-2.3 1.6-2.3 1.1s1-2.1 2.3-3.5c1.2-1.4.5-.8-1.7 1.3-3.6 3.6-3.8 4.1-3.1 8 .5 2.3.8 5.2.8 6.4-.1 1.4.3 2 1 1.6.7-.4.8 1 .4 4.3-.4 3.1-.3 4.2.3 2.9.9-2 1.5-.7 1.1 2.2-.1.7.5 1 1.3.7.8-.3 1.4 0 1.3.8-.1 3.5.4 4.8 2.1 4.9 1.2 0 1.1.3-.7 1-2 .8-2.2 1.4-1.7 4.2.3 1.7.8 5.4 1.1 8.1.8 7.9 2.2 7.6 3.1-.6l.8-7.3.8 14c.4 7.7.4 15.2.2 16.8-1 5.2-2.3 2.7-2.7-5.1l-.3-7.7-.2 8.2c-.1 5.6.2 8.3.9 8.3.6 0 3-1.9 5.3-4.2 2.2-2.3 3.5-3.8 2.9-3.4-.7.4-1.3.4-1.3-.1 0-.4 1.2-1.4 2.7-2.1 2-.9 2.4-.9 1.5 0-2 2-1.4 2.3 4.3 2.3 3 0 5.5-.3 5.5-.8 0-.4.3-.6.8-.5.4.1 2.1-.4 3.7-1.1 4.8-2 12.8-3.3 13.5-2.2.3.6 2.3 1.2 4.4 1.4 3.5.4 5 1.4 5.9 4.1.2.6.9.6 1.7.1 1.1-.7 1-1-.6-1.5-1.4-.5-1-.8 1.9-1.2 3.2-.3 3.7-.1 3.8 1.7.1 1.7.2 1.6.8-.5l.7-2.5.8 2.2c.4 1.3 1.2 2.3 1.7 2.3.6 0 .6-.7-.1-1.9-1.4-2.7-1.3-3.1 1-3.1 1.1 0 2.4.8 2.7 1.8 1.1 2.8 5.3 8.6 5.3 7.3 0-.7 1-1.1 2.3-.9 2.1.3 2.2.1 2.1-7.7-.1-4.6.2-6.9.6-5.5.6 2.2.7 2.1 1.2-1.5.3-2.2.1-4.3-.4-4.6-.6-.3-.7-4-.3-8.5.4-4.3.7-9.1.8-10.6.1-1.4.6-3 1-3.4.4-.5.5 0 .2 1.1s.1.8 1-.8c.9-1.5 1.3-3.1 1.1-3.6-.3-.5.1-1.4.9-2.1.8-.7 1.4-2.6 1.4-4.4-.1-1.7.4-5.1 1-7.5 1-3.7.9-4.9-.6-7.9-1-2-3.4-4.5-5.3-5.6l-3.5-1.9 3.5 3.2 3.5 3.2-4.1-2.5c-2.2-1.3-6-3.1-8.5-3.9-2.8-1-4.4-2.1-4.3-3.1.1-.9-.3-1.6-.8-1.6-.7 0-.7-.5-.1-1.3 1.2-1.6.8-10-.6-10.5-.6-.2-1.1-.8-1.1-1.3 0-.6.4-.8.8-.5.5.3.9-.1.9-.9s-.4-1.5-.9-1.5c-1.4 0-.9-2.8.7-3.4.8-.3 1.5-1.1 1.4-1.8 0-1-.2-1-.6-.1-1.2 3.1-2.1.8-1.9-4.7.2-3.3-.1-6-.6-6s-.6.6-.2 1.2c.4.7.4 1 .1.7-.4-.3-.9-7-1.2-15-.7-19.9-1.5-33.1-2-33.9-.2-.3-.5-5.7-.6-11.8-.1-6.3-.6-11.5-1.1-11.8-.7-.4-.9.7-.6 3 .2 2 0 3.6-.4 3.6s-.8-2.3-.8-5c0-3.6.4-5 1.4-5 .7 0 1.9-.6 2.6-1.4.9-1.2.8-1.7-.7-2.6-1.4-.9-1.7-2.1-1.5-5.5.3-3.8.1-4.6-2.7-6.6-1.9-1.4-2.7-2.7-2.2-3.3 1.7-2.2 2-5.6.4-5.6-1 0-1.2.6-.8 1.9zM133 48.6c0 .2-.7.4-1.5.4s-1.5-.4-1.5-1c0-.5.7-.7 1.5-.4.8.4 1.5.8 1.5 1zm9 4.4c0 .5-.4 1-1 1-.5 0-1-.5-1-1 0-.6.5-1 1-1 .6 0 1 .4 1 1zm-32 9.6c0 .2-.7.4-1.5.4s-1.5-.4-1.5-1c0-.5.7-.7 1.5-.4.8.4 1.5.8 1.5 1zm29.1 8.5c-.6 1.6-1 1.8-1 .7-.1-2.2 1.2-5.5 1.6-4.2.2.6-.1 2.2-.6 3.5zm1.5 14.6c-1 1-1.9-.5-1-1.8.6-1.1.8-1.1 1.2 0 .2.7.1 1.5-.2 1.8zm-21.3 6c-.7.2-2.1.2-3 0-1-.3-.4-.5 1.2-.5 1.7 0 2.4.2 1.8.5zm5 0c-.7.2-1.9.2-2.5 0-.7-.3-.2-.5 1.2-.5s1.9.2 1.3.5zM143 93c0 .5-.4 1-1 1-.5 0-1-.5-1-1 0-.6.5-1 1-1 .6 0 1 .4 1 1zm-33.5 1c-.3.5-1.1 1-1.6 1-.6 0-.7-.5-.4-1 .3-.6 1.1-1 1.6-1 .6 0 .7.4.4 1zm-3.5 2c0 .5-.7 1-1.6 1-.8 0-1.2-.5-.9-1 .3-.6 1-1 1.6-1 .5 0 .9.4.9 1zm36.5 4.9c.3.5.1 1.2-.5 1.6-.5.3-1-.1-1-.9 0-1.8.6-2.1 1.5-.7zM111 138c0 .5.3.9.8.9.4-.1 1.3-.1 2.1 0 1.2.1 1.1.4-.3 1.4-1.1.8-1.5 1.9-1 3.1.5 1.4.9 1.5 1.5.4.5-.8.9 1.7.9 6.2 0 7.9-.9 10-4.3 10-1.7 0-1.8-.7-1.3-7.8.3-4.2.7-8.8 1-10.1.3-1.4.1-3-.5-3.8-.8-.9-.8-1.3 0-1.3.6 0 1.1.4 1.1 1zm19.7 10.5c0 3.1.3 5.8.7 6.2 1.4 1.4.6 4.4-1.1 4.1-1.4-.3-1.8-1.5-2-5.8-.2-3.8 0-5 .7-4 .8 1.3 1 1.2 1-.3 0-.9-.4-1.7-1-1.7-1.4 0-1.2-2.7.3-3.3.6-.3 1.2-.6 1.3-.6 0-.1.1 2.4.1 5.4zm-10-.3c-.3.8-.6.5-.6-.6-.1-1.1.2-1.7.5-1.3.3.3.4 1.2.1 1.9zm-15 8.5c-.2 1.6-.4.3-.4-2.7s.2-4.3.4-2.8c.2 1.6.2 4 0 5.5zm15-2.5c-.3.8-.6.5-.6-.6-.1-1.1.2-1.7.5-1.3.3.3.4 1.2.1 1.9zm14.7 3.1c.4 1.9.3 2.6-.4 2.2-.5-.3-1-1.8-1-3.2 0-3.2.5-2.8 1.4 1zm10.6 2.1c0 .3-.4.8-1 1.1-.5.3-1 .1-1-.4 0-.6.5-1.1 1-1.1.6 0 1 .2 1 .4zm.5 3.6c.3.5.1 1-.4 1-.6 0-1.1-.5-1.1-1 0-.6.2-1 .4-1 .3 0 .8.4 1.1 1zm-12.5 4c0 .5-.4 1-1 1-.5 0-1-.5-1-1 0-.6.5-1 1-1 .6 0 1 .4 1 1zm3 0c0 .5-.2 1-.4 1-.3 0-.8-.5-1.1-1-.3-.6-.1-1 .4-1 .6 0 1.1.4 1.1 1zm3 .5c0 .8-.4 1.5-1 1.5-.5 0-1-.7-1-1.5s.5-1.5 1-1.5c.6 0 1 .7 1 1.5zm-31.5.5c.6 1-1.4 1.5-4.9 1.1-1 0-2.4.3-3 .7-.6.5-1.9 1.2-2.9 1.5-1.4.5-1.6.3-.8-1.1.6-1.1 2.3-1.9 4.7-2 2.1-.2 4-.5 4.3-.7.7-.8 1.9-.6 2.6.5zm34.5 0c0 .5.8.7 1.8.3 1.3-.4 1.4-.3.6.6-.6.6-1.8.9-2.7.5-1.8-.7-2.3-2.4-.7-2.4.6 0 1 .4 1 1zm-29.5 6.9c-2.2.4-4.5 1-5 1.3-.6.4-3 .9-5.3 1.3-5.1.7-11.6 2.9-14 4.7-1.2.9-1.7 2.7-1.7 6.5 0 2.9-.2 5.3-.4 5.3-.3 0-1.3-.7-2.3-1.7-1.7-1.5-1.8-1.5-1.8.4 0 1.1.9 2.8 2 3.8 2.4 2.2 2.6 3.7.3 2.8-1.2-.5-1.4-.3-.8.8.5.8.5 1.1-.1.6-.5-.5-.9-1.2-.9-1.5 0-.4-.8-2.4-1.8-4.5-1.5-3.1-1.7-4.4-.8-6.5 2.7-6.4 20.6-14 33.1-14l3.5.1-4 .6zm30.8 1c4.1 1.1 9.3 2.9 11.5 4 4.9 2.5 9.2 7.5 9.2 10.6 0 2.5-5.4 9.5-7.3 9.5-.7 0-.7-.4.1-1.2 1.6-1.6 1.5-2.8-.3-2.8-.8 0-1.5-.7-1.5-1.6 0-1.1.8-1.4 2.7-1.2 1.5.2 2.8-.2 3-1 .3-.8-.3-1.1-1.9-.8-3.3.5-4.8-1.1-4.1-4.5.4-2.1.1-3-1.2-3.5s-1.4-.9-.4-1.5c2.5-1.5-8-5.2-15.4-5.4-3.8-.2-7.4-.8-8-1.4-1.8-1.8 4.9-1.4 13.6.8zm16.2-.1c-.3.3-1.1 0-1.8-.7-.9-1-.8-1.1.6-.5 1 .3 1.5.9 1.2 1.2zm4.4 3.7c1.3 2.9 1.2 2.9-.7 1.1-1.2-1-2-2.6-1.9-3.7.1-2.2.8-1.5 2.6 2.6zm-81.5-1c-.4.8-1 1.2-1.6.9-.5-.3-.8 0-.7.7.3 2.1-1.2 5-2.2 4.3-1.9-1.1-.9-5.5 1.4-6.4 3.2-1.3 3.7-1.2 3.1.5zm23.3 3.1c-.3.3-1.2.4-1.9.1-.8-.3-.5-.6.6-.6 1.1-.1 1.7.2 1.3.5zm22.1.1c-1 .2-2.8.2-4 0-1.3-.2-.5-.4 1.7-.4 2.2-.1 3.2.1 2.3.4zm-15.1 1c-3.2.4-3.6.7-2.6 1.9.9 1.1.8 1.4-.5 1.4-.9 0-1.6-.8-1.6-2 0-1.7.6-2 4.3-1.8l4.2.1-3.8.4zm28.3 1.5c1 .6.6.7-1.5.3-1.6-.4-3.4-1.1-4-1.7-1.2-1.2 3.1-.1 5.5 1.4zm-38-.3c0 .5-1.5 1.4-3.2 2l-3.3 1.1 2.5-2c2.7-2.1 4-2.5 4-1.1zm27 .1c0 .5-.4 1-1 1-.5 0-1-.5-1-1 0-.6.5-1 1-1 .6 0 1 .4 1 1zm35.1 1.7c-1.2 2-1.4 1.4-.5-1.2.4-.9.9-1.4 1.1-1.1.3.2 0 1.3-.6 2.3zm-47.8 1c-.7.2-1.9.2-2.5 0-.7-.3-.2-.5 1.2-.5s1.9.2 1.3.5zm22.2 2.3c.3.5-.1 1-.9 1-.9 0-1.6-.5-1.6-1 0-.6.4-1 .9-1 .6 0 1.3.4 1.6 1zm8.7 1.2c-1.7.8-2.6.8-3.4 0-.9-.9-.4-1.2 2.3-1.1 3.2 0 3.3.1 1.1 1.1zm-45.2.2c0 .3-.4.8-1 1.1-.5.3-1 .1-1-.4 0-.6.5-1.1 1-1.1.6 0 1 .2 1 .4zm-6.7 1.3c-.7.2-2.1.2-3 0-1-.3-.4-.5 1.2-.5 1.7 0 2.4.2 1.8.5zm31.8 13.1c.2 16.4-.2 17.2-9.6 17.2-4.8 0-6.4-.4-6.9-1.6-.3-.9-.5-7.3-.5-14.2.1-7 .4-11.1.8-9.2.6 3.2.9 3.5 4.5 3.8 2.9.3 3.6.6 2.5 1.3-1 .6-1 .9-.1.9.6 0 1.2.7 1.2 1.5 0 .9.9 1.5 2.5 1.5s2.5-.6 2.5-1.5c0-.8-.9-1.5-2-1.5-3 0-2.4-1.8.8-2.2 2.5-.3 2.7-.7 3-5.2.5-8.4 1.1-4.5 1.3 9.2zm6.4-9.6c.2 1.8.3 5 .4 7.1.1 2.3.5 3.6 1.1 3.2.6-.3 1 .1 1 .9 0 .9.5 1.6 1.1 1.6.5 0 .7-.5.4-1-.3-.6 0-1 .7-1 .7-.1.2-.7-1.2-1.6l-2.5-1.5 2.4.7c1.9.5 2.3.3 1.8-1-.4-.9-.2-1.6.3-1.6s1.1 1.7 1.3 3.7c.3 3.5.4 3.4.7-1.2l.3-5 .7 5.5c.5 3 .8 8.8.9 12.9l.1 7.3-4-.4-4-.4.2 4.4c.1 4.8-1 6.6-3.7 5.6-1.6-.7-1.7-1.9-1.1-17.8.4-9.4.6-18.4.6-19.9-.1-5.7 2-6.1 2.5-.5zm-29.5-3c.6 3.9 1.5 22 1.5 30.2 0 9.2-.3 11-1.7 12-2.4 1.4-3.2.3-3-4.4.1-2.8-.2-4-1.2-4-2.3 0-2.6-2.4-2.5-17.8.1-9 .4-13.5.9-11.7.4 1.6.9 2.4 1 1.7.1-.6.4-1.7.5-2.2.1-.6.3-1.3.4-1.8.1-.4.6 0 1.1.8.8 1.2 1 1.1 1-.8 0-1.2.5-2.2 1-2.2.6 0 1 .1 1 .2zm34.7 2.4c-.3.3-1.2.4-1.9.1-.8-.3-.5-.6.6-.6 1.1-.1 1.7.2 1.3.5zm-21.2 2.4c-.3.5-1.2 1-2 1s-1.7-.5-2-1c-.4-.6.5-1 2-1s2.4.4 2 1zm6.8-.3c-.7.2-1.9.2-2.5 0-.7-.3-.2-.5 1.2-.5s1.9.2 1.3.5zM151 198c1.2.8.9 1-1.2 1-1.6 0-2.8-.5-2.8-1 0-1.3 2-1.3 4 0zm-57.5 1c.3.5.1 1-.4 1-.6 0-1.1-.5-1.1-1 0-.6.2-1 .4-1 .3 0 .8.4 1.1 1zm47.2.6c-.3.3-1.2.4-1.9.1-.8-.3-.5-.6.6-.6 1.1-.1 1.7.2 1.3.5zm17.2 23.1c.5 8.7.7 16.1.5 16.4-.2.4-1.2.9-2.2 1.1-1.7.5-1.8-.4-1.7-12.6.1-7.2.3-16.7.4-21.1.3-7.4.4-7.7 1.2-3.8.4 2.4 1.2 11.3 1.8 20zm-60.1-20.2c.1 1.8-.2 2.3-1.3 1.9-1.8-.7-2-4.4-.2-4.4.7 0 1.4 1.1 1.5 2.5zm11.9-.3c-.3.8-.6.5-.6-.6-.1-1.1.2-1.7.5-1.3.3.3.4 1.2.1 1.9zm41.9-.5c-.2 1-1.3 1.9-2.4 2.1-2.4.4-2.8-.8-1-2.6 1.8-1.8 3.7-1.5 3.4.5zm-3.7 21.8c0 5.5-.2 7.5-.9 6.5-.5-.8-.9-6.9-.8-13.5.1-10 .2-11.1.8-6.5.5 3 .8 9.1.9 13.5zm-53 1c-.4 1.8-.7-.9-.6-6.5 0-9 0-9.2.6-3 .4 3.6.4 7.8 0 9.5zm14.8-12.3c-.3.7-.5.2-.5-1.2s.2-1.9.5-1.3c.2.7.2 1.9 0 2.5z"/><path d="M112.1 151.6c0 1.1.3 1.4.6.6.3-.7.2-1.6-.1-1.9-.3-.4-.6.2-.5 1.3zM116 205c0 .5.9 1 2 1s2-.5 2-1c0-.6-.9-1-2-1s-2 .4-2 1zM121.3 208.5c0 1 .9 1.5 2.6 1.4 2-.1 2.1-.3.7-.6-1.5-.4-1.6-.7-.5-1.4s.9-.9-.7-.9c-1.2 0-2.1.6-2.1 1.5zM116.5 208.9c-1 1.7 1.2 2.1 2.5.6 1-1.2 1-1.5-.3-1.5-.9 0-1.8.4-2.2.9zM116 219c0 .5.9 1 2 1s2-.5 2-1c0-.6-.9-1-2-1s-2 .4-2 1zM122 218.8c0 .4.9.8 2 .9 1.1.1 2-.2 2-.8 0-.5-.9-.9-2-.9s-2 .4-2 .8zM138.5 212c.3.5.8 1 1.1 1 .2 0 .4-.5.4-1 0-.6-.5-1-1.1-1-.5 0-.7.4-.4 1zM105.5 39c-.3.6.1.7.9.4 1.8-.7 2.1-1.4.7-1.4-.6 0-1.3.4-1.6 1zM146.1 127.6c0 1.1.3 1.4.6.6.3-.7.2-1.6-.1-1.9-.3-.4-.6.2-.5 1.3zM95 150.1c0 .5.5.7 1 .4.6-.3 1-.8 1-1.1 0-.2-.4-.4-1-.4-.5 0-1 .5-1 1.1zM100.2 156.5c0 1.6.2 2.2.5 1.2.2-.9.2-2.3 0-3-.3-.6-.5.1-.5 1.8zM163.5 204c.3.5.8 1 1.1 1 .2 0 .4-.5.4-1 0-.6-.5-1-1.1-1-.5 0-.7.4-.4 1zM162 212c0 1.1.2 2 .4 2s.6-.9.9-2c.3-1.1.1-2-.4-2s-.9.9-.9 2zM147.5 235c.3.5.8 1 1.1 1 .2 0 .4-.5.4-1 0-.6-.5-1-1.1-1-.5 0-.7.4-.4 1z"/></svg>